<svg version="1.1" id="Layer_1" xmlns="http://www.w3.org/2000/svg" xmlns:xlink="http://www.w3.org/1999/xlink" x="0px" y="0px"
	 width="100%" viewBox="0 0 316 288" enable-background="new 0 0 316 288" xml:space="preserve">
<path fill="#FBFBFB" opacity="1.000000" stroke="none" 
	d="
M1.000000,282.000000 
	C1.000000,188.403763 1.000000,94.807533 1.000000,1.000000 
	C101.020798,1.000000 201.041733,1.000000 301.531342,1.468657 
	C301.999603,46.624878 301.999207,91.312439 301.632751,136.004761 
	C299.030212,136.657425 296.793671,137.305344 295.019135,137.819427 
	C295.019135,139.172760 295.382904,141.499146 294.962616,141.650650 
	C290.950653,143.096954 291.005096,146.854965 289.537628,149.891083 
	C286.817291,155.519409 286.784668,158.087784 291.160583,163.142960 
	C289.444458,164.697601 287.721100,166.258835 285.269012,168.480194 
	C285.437744,165.678055 285.537384,164.023132 285.637024,162.368195 
	C285.113525,162.108734 284.590027,161.849258 284.066528,161.589798 
	C278.539307,170.163727 273.012115,178.737671 267.481628,187.316650 
	C271.535736,189.764359 275.411194,189.699905 278.535217,186.488098 
	C281.839905,183.090561 284.643372,179.205490 287.719696,175.467880 
	C289.732300,176.947037 290.948486,177.840897 292.231903,178.784119 
	C293.092316,176.652023 293.796051,174.908188 294.513458,173.130417 
	C297.370361,174.607300 299.684570,175.803650 301.999268,177.468658 
	C301.999420,192.958206 301.999084,207.979111 301.639343,223.042053 
	C299.222290,224.721481 297.197052,226.401810 295.097717,227.983841 
	C293.124695,229.470642 290.342133,230.430832 289.217926,232.375504 
	C287.239197,235.798325 285.347015,235.725952 283.002747,233.378891 
	C279.439484,229.811432 276.075287,226.045105 272.567688,222.300415 
	C268.525818,224.154495 266.965759,226.379700 268.597900,228.481888 
	C271.660126,232.425980 274.916565,236.219284 278.163757,240.162186 
	C280.391968,237.213867 282.514038,236.842941 283.320435,242.315582 
	C283.647705,244.536377 284.123413,246.844193 285.100952,248.832520 
	C286.301819,251.275146 288.098358,253.424957 289.637390,255.701324 
	C291.217773,254.525467 292.789124,253.337128 294.383911,252.181091 
	C294.885895,251.817200 295.450714,251.540009 296.853668,250.710709 
	C298.042969,254.668076 299.026276,258.169312 300.193878,261.607941 
	C300.397339,262.207184 301.377411,262.542694 301.999207,263.444153 
	C301.999359,266.258881 301.999054,268.629425 301.612946,271.049164 
	C289.140198,276.364166 279.816620,269.889191 270.949677,264.785187 
	C272.221252,260.677734 273.079407,257.186371 274.477295,253.926468 
	C274.802551,253.168015 276.995728,252.839508 278.273804,252.950974 
	C280.024628,253.103683 281.722290,253.865601 283.442749,254.366425 
	C283.061188,252.538284 282.751953,250.690521 282.264130,248.891190 
	C282.055420,248.121292 281.455200,247.462708 281.066437,246.735596 
	C279.254272,243.346237 277.127228,243.017487 274.684814,245.989761 
	C272.760132,248.332031 271.118011,250.906479 270.085968,252.349365 
	C266.520782,252.212936 263.252594,251.901886 259.998413,252.010849 
	C256.017517,252.144135 252.901901,251.417267 252.130783,246.618103 
	C258.924774,247.806564 258.697327,247.825912 258.130310,241.162064 
	C257.815918,237.467407 256.850922,233.930984 259.477875,229.936630 
	C261.380798,227.043213 262.743866,224.605438 266.072418,223.341019 
	C267.555756,222.777542 268.692749,221.302322 270.457184,219.855209 
	C267.420044,219.363632 265.313324,219.022659 263.206604,218.681671 
	C263.225006,218.249222 263.243408,217.816757 263.261810,217.384308 
	C264.418427,216.605682 265.575043,215.827057 266.596710,215.139282 
	C263.026215,210.973770 259.599304,206.975769 255.733002,202.465164 
	C257.851532,201.299149 260.487640,199.002060 261.312866,199.530853 
	C266.842773,203.074402 268.034760,197.968292 270.374084,196.081238 
	C267.596680,194.436935 265.121002,192.971252 262.645325,191.505585 
	C263.869232,189.881287 263.055176,190.453140 262.378998,191.157349 
	C255.238373,198.594345 248.155228,206.086868 240.979858,213.490036 
	C237.457214,217.124512 234.107803,221.065338 230.050095,223.995102 
	C227.246796,226.019180 224.028503,229.088882 219.939392,226.599945 
	C234.998245,214.296127 248.963898,201.340149 260.957367,186.406693 
	C270.614441,174.382324 279.533020,161.857880 285.494354,147.103394 
	C287.953766,140.611969 290.359161,134.437134 292.322174,128.124725 
	C297.529480,111.379814 297.259399,94.675087 290.845612,78.306343 
	C281.964478,55.640568 265.120697,41.706688 241.700241,36.402889 
	C222.573029,32.071335 204.706421,37.062332 188.364960,47.361561 
	C184.434174,49.838936 181.317825,53.608509 177.533508,56.789429 
	C176.710159,56.964252 176.180237,57.133465 175.650299,57.302677 
	C175.727524,57.516010 175.804749,57.729347 175.881958,57.942680 
	C176.601974,57.646751 177.321991,57.350819 178.422607,57.018162 
	C180.840057,56.304871 182.911484,55.716892 184.908218,54.937546 
	C199.206985,49.356575 213.791428,46.177620 229.242752,48.974541 
	C260.715271,54.671535 278.420959,80.093102 276.553131,110.218521 
	C275.933167,120.217407 273.011688,130.073593 271.022522,140.351974 
	C267.907990,147.261414 265.275604,154.010178 261.851257,160.329819 
	C251.334198,179.739243 237.881363,196.945602 221.747192,212.021896 
	C213.872543,219.380234 205.882599,226.615173 197.613190,233.989685 
	C191.082748,238.798843 184.948349,243.611832 178.670319,248.229538 
	C168.792740,255.494827 158.818466,262.628662 148.546005,269.911926 
	C143.797958,273.010284 139.389053,276.014862 134.990753,279.009979 
	C135.001343,279.000519 135.024414,278.983948 134.694550,278.971375 
	C133.597809,279.267517 132.830963,279.576263 131.885529,280.221008 
	C130.869522,281.019592 130.043228,281.857544 129.192795,281.882812 
	C124.295479,282.028351 119.392441,281.994141 114.491333,281.997498 
	C102.935654,282.005341 91.379967,282.000000 79.824287,282.000000 
	C53.549526,282.000000 27.274763,282.000000 1.000000,282.000000 
M135.925156,216.198196 
	C138.621231,218.452789 141.317291,220.707397 144.525833,223.447037 
	C146.413910,223.747116 148.724075,224.894913 150.117294,224.201187 
	C156.288666,221.128265 162.196671,217.526459 168.767365,213.749527 
	C170.305161,212.819275 171.857147,211.911591 173.378296,210.954865 
	C179.707504,206.974152 185.525162,202.498398 189.017990,194.865295 
	C191.628952,189.872513 192.587845,184.702072 191.232147,179.096466 
	C190.269241,175.115082 189.720230,171.033585 189.328186,166.623154 
	C189.445801,166.151230 189.563431,165.679306 189.681046,165.207397 
	C189.549789,165.179718 189.418533,165.152023 189.287262,165.124344 
	C189.198227,165.757935 189.109177,166.391525 188.450607,166.751923 
	C188.265915,166.148972 188.081223,165.546021 188.028625,164.247314 
	C189.185684,162.448669 190.227386,160.562134 191.519531,158.866440 
	C197.509491,151.005661 200.509003,142.651352 196.036545,132.235962 
	C191.665512,121.736359 182.333572,115.739449 170.187027,116.043144 
	C167.123901,116.678230 163.972244,117.039757 161.013489,117.997345 
	C150.145615,121.514725 140.540558,131.544250 145.997528,146.755447 
	C146.847153,149.123795 145.812744,152.168045 145.235626,155.510818 
	C145.292099,163.708420 150.428146,168.704544 155.645050,172.500580 
	C153.595795,175.033066 151.475693,177.552109 149.470184,180.159286 
	C147.370056,182.889465 145.226822,182.640549 143.450439,180.071732 
	C141.775894,177.650208 140.577530,174.904831 139.073593,172.358688 
	C136.640121,168.238846 131.447174,166.423233 127.554779,168.250031 
	C122.941055,170.415375 121.962746,173.440628 124.149391,179.656509 
	C126.760674,181.766312 129.371964,183.876114 132.000610,186.000000 
	C132.000610,186.000000 131.986877,185.981384 131.797211,186.716965 
	C132.266617,188.346817 132.736023,189.976654 132.889114,192.327515 
	C131.905823,195.260696 130.922546,198.193893 129.484070,201.015213 
	C129.484070,201.015213 129.028488,200.903336 128.720352,200.305969 
	C125.532677,195.799652 122.344994,191.293335 118.990242,186.107910 
	C114.955482,179.421066 110.920715,172.734238 106.705894,165.382919 
	C102.861244,158.605530 98.452225,152.364807 90.596115,148.423889 
	C87.736832,147.581696 84.877548,146.739502 81.304291,145.801819 
	C76.455650,140.996857 75.963585,133.938248 80.012199,127.267441 
	C83.189568,122.032173 84.632973,121.797470 88.846329,126.226791 
	C93.347946,130.959137 97.893219,135.602509 104.500946,137.259781 
	C108.711617,138.315857 112.378036,137.596481 115.123344,133.028412 
	C116.796333,131.803513 118.597137,130.718079 120.116547,129.325592 
	C123.630493,126.105186 128.473221,124.127831 130.850266,118.950890 
	C138.904205,118.999039 140.242096,117.933678 139.707077,109.796669 
	C139.267258,103.107170 140.465424,97.762726 145.848465,92.984825 
	C150.961273,88.446777 153.316422,81.866722 152.476013,74.919739 
	C151.836685,69.635071 150.117676,64.481026 148.588150,58.044708 
	C147.237473,60.207272 146.661179,61.129967 145.434479,62.258015 
	C144.762466,62.708424 143.965759,63.045345 143.437088,63.626213 
	C134.989441,72.907707 125.166451,80.169472 112.942902,83.558144 
	C103.028351,86.306694 92.985924,88.593964 82.229652,91.096138 
	C67.738327,93.943840 54.280502,106.020355 51.128136,119.051872 
	C52.313953,118.081841 53.273506,116.931641 54.062046,115.674194 
	C58.496624,108.602600 64.380318,103.128365 72.005272,99.699081 
	C75.916740,97.939926 79.997383,96.556931 84.836624,94.998077 
	C87.457649,94.624771 90.072144,94.195747 92.700813,93.887665 
	C104.947205,92.452393 117.022278,90.363602 127.836342,83.948021 
	C136.074112,79.060860 142.944733,72.798363 147.637619,64.288788 
	C151.524414,73.658752 148.880814,82.406189 142.845123,89.255173 
	C136.992966,95.895889 134.011353,102.578407 135.154327,111.240562 
	C135.590668,114.547409 134.120316,116.023491 130.626617,116.145058 
	C129.352295,116.189400 128.138824,117.982895 126.321854,119.360283 
	C124.025940,121.439072 121.716553,125.259552 119.436867,125.241928 
	C114.353058,125.202599 114.613510,129.167526 112.107651,132.015091 
	C107.239258,134.496826 103.041725,132.717529 99.224663,129.723969 
	C96.098763,127.272461 93.138634,124.588074 90.269440,121.835526 
	C85.297943,117.066132 83.802002,117.060608 79.324753,122.411285 
	C78.378868,123.541687 77.296799,124.832657 77.019386,126.200157 
	C75.847298,131.977875 74.955513,137.812469 73.931374,143.800903 
	C71.597519,144.286530 68.197495,144.994003 64.797478,145.701477 
	C64.897636,145.978058 64.997795,146.254654 65.097954,146.531250 
	C70.343155,147.062714 75.588364,147.594193 81.320374,148.610703 
	C83.832863,149.817230 86.345352,151.023743 89.241295,152.762909 
	C93.496933,157.508484 97.752579,162.254059 102.120499,167.692825 
	C106.481667,175.117416 110.842827,182.542023 115.396385,190.610397 
	C118.914238,195.437820 122.432091,200.265244 126.233803,205.696579 
	C129.405243,209.004196 132.576660,212.311813 135.925156,216.198196 
M198.848755,181.956741 
	C198.684372,186.596725 199.368759,191.460938 198.212204,195.838806 
	C192.466522,217.587814 179.208603,233.970901 160.699142,246.341431 
	C151.409058,252.550339 142.350632,252.428497 132.707489,246.466446 
	C117.946907,237.340454 105.255356,226.009720 93.968246,212.949432 
	C92.883484,211.694260 91.332062,210.842377 89.997269,209.803284 
	C100.799194,226.223450 113.753571,240.204269 130.368088,250.335144 
	C140.866104,256.736420 151.545563,258.417633 162.829849,251.547501 
	C181.290070,240.308502 193.416245,224.128799 200.577240,204.095459 
	C203.285904,196.517746 204.021027,188.576370 200.102402,180.140488 
	C199.737366,175.085205 196.990250,171.675751 192.765564,169.310059 
	C194.760529,173.218399 196.755508,177.126740 198.848755,181.956741 
M126.397141,15.740314 
	C118.638672,11.637522 110.379189,9.141832 101.605339,9.096709 
	C67.503830,8.921332 44.435196,26.793835 29.585592,55.671333 
	C15.345613,83.363327 15.765649,112.773834 24.640661,142.032730 
	C36.389355,180.765472 60.606094,211.258408 90.226440,238.765625 
	C100.009262,248.564667 110.430885,257.559174 122.320869,264.772034 
	C122.142525,263.343872 121.548622,262.394073 120.792717,261.598114 
	C112.888397,253.275070 104.982292,244.953354 97.007179,236.698395 
	C95.897682,235.549973 94.412689,234.764297 93.018059,233.123199 
	C92.344864,231.989578 91.745644,230.803696 90.987350,229.730179 
	C80.268227,214.555161 68.414841,200.049164 59.036453,184.088272 
	C42.354164,155.697067 32.108921,125.090378 36.011318,91.480698 
	C38.646797,68.782402 47.743950,48.940266 65.687347,34.007362 
	C76.768265,24.785564 89.496765,19.358870 104.150429,20.132092 
	C109.711517,20.425529 115.201263,22.071115 121.184029,23.642048 
	C137.419922,31.577791 151.152466,42.046616 158.361694,59.433075 
	C161.826965,67.790184 161.905228,75.797478 157.560532,83.836998 
	C156.568268,85.673103 156.146500,87.817520 155.462158,89.820038 
	C156.772263,89.495232 157.050369,88.676910 157.621475,88.276062 
	C166.250107,82.219879 167.727936,73.583374 166.068954,64.066101 
	C163.986252,52.118084 156.259445,43.150585 149.280014,33.875278 
	C143.410629,26.075186 136.327469,19.658234 126.397141,15.740314 
M234.850739,98.771416 
	C234.469604,98.031776 234.133011,96.674980 233.700714,96.643768 
	C225.310028,96.037956 222.294861,90.415100 220.844482,83.215820 
	C220.729935,82.647263 220.237488,82.154839 219.127716,80.305992 
	C218.363327,90.606598 213.846039,96.488007 203.987228,98.034866 
	C214.561752,99.033356 218.486694,105.698250 220.208054,114.999474 
	C221.787567,106.439384 224.643707,99.710579 234.850739,98.771416 
M264.674408,234.126511 
	C266.890594,232.904846 268.080414,231.258286 265.867584,229.187195 
	C265.286377,228.643219 262.774139,228.960571 262.686554,229.290497 
	C262.199554,231.125778 260.158173,233.660660 264.674408,234.126511 
M264.509491,205.146957 
	C264.209137,205.571136 263.908752,205.995316 263.608398,206.419495 
	C264.052948,206.532578 264.497467,206.645645 264.942017,206.758713 
	C264.995209,206.262451 265.048401,205.766190 264.509491,205.146957 
M282.292755,260.439911 
	C282.010925,260.708649 281.729126,260.977417 281.447327,261.246185 
	C281.558716,261.362854 281.760925,261.587036 281.768463,261.580688 
	C282.065674,261.329803 282.345154,261.057983 282.292755,260.439911 
z"/>
<path fill="#FFFFFF" opacity="1.000000" stroke="none" 
	d="
M301.998779,223.000000 
	C301.999084,207.979111 301.999420,192.958206 301.999756,177.000000 
	C301.999451,162.708450 301.999115,149.354233 301.998779,136.000000 
	C301.999207,91.312439 301.999603,46.624878 302.000000,1.468657 
	C306.996033,1.000000 311.992065,1.000000 316.991089,1.000000 
	C316.994049,96.919945 316.994049,192.839890 316.994049,288.879913 
	C211.666779,288.879913 106.333397,288.879913 1.000000,288.879913 
	C1.000000,286.992615 1.000000,284.994232 1.000000,282.497925 
	C27.274763,282.000000 53.549526,282.000000 79.824287,282.000000 
	C91.379967,282.000000 102.935654,282.005341 114.491333,281.997498 
	C119.392441,281.994141 124.295479,282.028351 129.192795,281.882812 
	C130.043228,281.857544 130.869522,281.019592 132.206985,280.252258 
	C133.137436,279.979980 133.567886,280.012482 134.090775,280.427551 
	C136.185196,281.188416 138.192856,281.905853 140.187897,281.872314 
	C143.977081,281.808594 147.762543,281.008331 151.543396,281.051544 
	C170.971924,281.273621 190.397430,281.839600 209.825989,281.958252 
	C236.949005,282.123871 264.073853,282.031677 291.197815,281.985657 
	C303.484619,281.964813 301.887756,283.426514 301.998779,271.000000 
	C301.999054,268.629425 301.999359,266.258881 301.999695,262.975494 
	C301.999420,249.041794 301.999084,236.020889 301.998779,223.000000 
z"/>
<path fill="#FBFBFB" opacity="1.000000" stroke="none" 
	d="
M301.612946,271.049164 
	C301.887756,283.426514 303.484619,281.964813 291.197815,281.985657 
	C264.073853,282.031677 236.949005,282.123871 209.825989,281.958252 
	C190.397430,281.839600 170.971924,281.273621 151.543396,281.051544 
	C147.762543,281.008331 143.977081,281.808594 140.187897,281.872314 
	C138.192856,281.905853 136.185196,281.188416 134.312546,280.302673 
	C134.636047,279.524811 134.830215,279.254364 135.024414,278.983948 
	C135.024414,278.983948 135.001343,279.000519 135.356369,278.981262 
	C140.142792,276.672241 144.574173,274.382538 149.357544,272.017212 
	C164.213226,263.338257 178.745331,254.782074 193.189865,246.080490 
	C195.348587,244.780045 197.096298,242.797348 199.379303,241.055679 
	C206.395630,236.280304 213.066803,231.579514 219.737961,226.878708 
	C224.028503,229.088882 227.246796,226.019180 230.050095,223.995102 
	C234.107803,221.065338 237.457214,217.124512 240.979858,213.490036 
	C248.155228,206.086868 255.238373,198.594345 262.378998,191.157349 
	C263.055176,190.453140 263.869232,189.881287 262.645325,191.505585 
	C265.121002,192.971252 267.596680,194.436935 270.374084,196.081238 
	C268.034760,197.968292 266.842773,203.074402 261.312866,199.530853 
	C260.487640,199.002060 257.851532,201.299149 255.733002,202.465164 
	C259.599304,206.975769 263.026215,210.973770 266.596710,215.139282 
	C265.575043,215.827057 264.418427,216.605682 263.261810,217.384308 
	C263.243408,217.816757 263.225006,218.249222 263.206604,218.681671 
	C265.313324,219.022659 267.420044,219.363632 270.457184,219.855209 
	C268.692749,221.302322 267.555756,222.777542 266.072418,223.341019 
	C262.743866,224.605438 261.380798,227.043213 259.477875,229.936630 
	C256.850922,233.930984 257.815918,237.467407 258.130310,241.162064 
	C258.697327,247.825912 258.924774,247.806564 252.130783,246.618103 
	C252.901901,251.417267 256.017517,252.144135 259.998413,252.010849 
	C263.252594,251.901886 266.520782,252.212936 270.085968,252.349365 
	C271.118011,250.906479 272.760132,248.332031 274.684814,245.989761 
	C277.127228,243.017487 279.254272,243.346237 281.066437,246.735596 
	C281.455200,247.462708 282.055420,248.121292 282.264130,248.891190 
	C282.751953,250.690521 283.061188,252.538284 283.442749,254.366425 
	C281.722290,253.865601 280.024628,253.103683 278.273804,252.950974 
	C276.995728,252.839508 274.802551,253.168015 274.477295,253.926468 
	C273.079407,257.186371 272.221252,260.677734 270.949677,264.785187 
	C279.816620,269.889191 289.140198,276.364166 301.612946,271.049164 
z"/>
<path fill="#9CCCBE" opacity="1.000000" stroke="none" 
	d="
M120.723526,23.100407 
	C115.201263,22.071115 109.711517,20.425529 104.150429,20.132092 
	C89.496765,19.358870 76.768265,24.785564 65.687347,34.007362 
	C47.743950,48.940266 38.646797,68.782402 36.011318,91.480698 
	C32.108921,125.090378 42.354164,155.697067 59.036453,184.088272 
	C68.414841,200.049164 80.268227,214.555161 90.987350,229.730179 
	C91.745644,230.803696 92.344864,231.989578 92.917770,233.787018 
	C91.840782,235.704010 90.864082,236.957184 89.887383,238.210342 
	C60.606094,211.258408 36.389355,180.765472 24.640661,142.032730 
	C15.765649,112.773834 15.345613,83.363327 29.585592,55.671333 
	C44.435196,26.793835 67.503830,8.921332 101.605339,9.096709 
	C110.379189,9.141832 118.638672,11.637522 126.699478,16.346275 
	C127.831963,21.986397 125.292084,23.579205 120.723526,23.100407 
z"/>
<path fill="#FBFBFA" opacity="1.000000" stroke="none" 
	d="
M129.939255,201.127075 
	C130.922546,198.193893 131.905823,195.260696 133.291245,192.209900 
	C133.947067,193.706741 134.200775,195.321182 134.352615,196.287415 
	C136.389191,198.332764 138.421722,200.081955 140.105621,202.119293 
	C145.428207,208.559128 152.868576,210.700317 161.359253,207.953339 
	C168.319321,205.586914 174.970978,203.300888 178.985672,196.594696 
	C172.648422,199.691742 166.783203,202.558105 160.534531,205.394424 
	C153.670334,207.079315 148.186432,204.904312 143.845581,200.331192 
	C139.583679,195.841217 135.915573,190.787628 131.986877,185.981384 
	C131.986877,185.981384 132.000610,186.000000 132.044708,185.642014 
	C129.734238,182.843124 127.379662,180.402222 125.023666,177.572845 
	C124.995140,173.379547 126.994225,171.333435 130.662048,170.921158 
	C134.255203,170.517273 136.528931,172.181808 138.105576,175.447784 
	C139.664932,178.677948 141.180679,182.236465 143.691940,184.623901 
	C147.012650,187.780884 150.750488,192.176025 156.028900,190.196320 
	C159.671692,188.830063 162.619034,185.609558 165.877167,183.217728 
	C165.470428,182.658829 165.063690,182.099930 164.656952,181.541031 
	C162.710922,182.867920 160.656357,184.062592 158.842834,185.550934 
	C155.680084,188.146637 152.832886,188.809509 149.511627,183.766525 
	C154.532761,179.502762 159.645126,175.161530 164.240997,171.258881 
	C154.845871,171.069992 150.745026,163.737183 148.261139,154.712952 
	C148.479630,152.004532 148.955734,149.415817 148.269104,147.184998 
	C145.872818,139.399475 147.648300,132.810394 153.231827,127.141006 
	C158.095062,122.202965 164.049225,119.636375 171.412109,119.606499 
	C181.066864,120.337334 187.416290,125.373901 192.113602,133.403183 
	C194.610336,143.010315 192.996246,151.459412 187.889206,159.454376 
	C186.944611,160.933105 187.205917,163.182144 186.735138,165.356125 
	C186.217422,166.621246 185.347290,167.787659 185.614136,168.562592 
	C188.478378,176.880615 188.589569,185.294891 186.632690,194.034882 
	C183.556030,197.232376 180.969238,200.484924 177.866608,203.133087 
	C173.742355,206.653244 169.216034,209.702332 164.517609,213.010193 
	C162.604736,213.965714 161.133438,215.165649 159.450348,215.706635 
	C154.702530,217.232697 149.867752,218.488174 144.848907,219.605652 
	C141.756287,216.567322 138.882004,213.773651 135.867828,210.678009 
	C133.533951,207.896988 131.339966,205.417953 129.110962,202.734192 
	C129.075974,202.529449 129.035477,202.116013 129.245514,202.008484 
	C129.743347,201.722061 129.904587,201.464111 129.939255,201.127075 
z"/>
<path fill="#ECB19B" opacity="1.000000" stroke="none" 
	d="
M271.142426,139.995026 
	C273.011688,130.073593 275.933167,120.217407 276.553131,110.218521 
	C278.420959,80.093102 260.715271,54.671535 229.242752,48.974541 
	C213.791428,46.177620 199.206985,49.356575 184.908218,54.937546 
	C182.911484,55.716892 180.840057,56.304871 178.368134,56.950958 
	C177.933060,56.920479 177.826935,56.783821 177.826935,56.783821 
	C181.317825,53.608509 184.434174,49.838936 188.364960,47.361561 
	C204.706421,37.062332 222.573029,32.071335 241.700241,36.402889 
	C265.120697,41.706688 281.964478,55.640568 290.845612,78.306343 
	C297.259399,94.675087 297.529480,111.379814 292.322174,128.124725 
	C290.359161,134.437134 287.953766,140.611969 285.311829,146.757324 
	C282.121094,144.972275 278.478027,143.874191 276.847046,141.432220 
	C274.916382,138.541580 273.279175,139.451767 271.142426,139.995026 
z"/>
<path fill="#EEB19B" opacity="1.000000" stroke="none" 
	d="
M271.022522,140.351974 
	C273.279175,139.451767 274.916382,138.541580 276.847046,141.432220 
	C278.478027,143.874191 282.121094,144.972275 285.056152,147.011200 
	C279.533020,161.857880 270.614441,174.382324 260.957367,186.406693 
	C248.963898,201.340149 234.998245,214.296127 219.939392,226.599945 
	C213.066803,231.579514 206.395630,236.280304 199.368042,240.634125 
	C198.656036,238.160095 198.300446,236.033035 197.944839,233.905960 
	C205.882599,226.615173 213.872543,219.380234 221.747192,212.021896 
	C237.881363,196.945602 251.334198,179.739243 261.851257,160.329819 
	C265.275604,154.010178 267.907990,147.261414 271.022522,140.351974 
z"/>
<path fill="#81B8D7" opacity="1.000000" stroke="none" 
	d="
M200.144104,180.926193 
	C204.021027,188.576370 203.285904,196.517746 200.577240,204.095459 
	C193.416245,224.128799 181.290070,240.308502 162.829849,251.547501 
	C151.545563,258.417633 140.866104,256.736420 130.368088,250.335144 
	C113.753571,240.204269 100.799194,226.223450 89.997269,209.803284 
	C91.332062,210.842377 92.883484,211.694260 93.968246,212.949432 
	C105.255356,226.009720 117.946907,237.340454 132.707489,246.466446 
	C142.350632,252.428497 151.409058,252.550339 160.699142,246.341431 
	C179.208603,233.970901 192.466522,217.587814 198.212204,195.838806 
	C199.368759,191.460938 198.684372,186.596725 199.148773,181.470078 
	C199.680557,180.964340 199.912338,180.945267 200.144104,180.926193 
z"/>
<path fill="#FBFBFB" opacity="1.000000" stroke="none" 
	d="
M301.632751,136.004761 
	C301.999115,149.354233 301.999451,162.708450 301.999268,176.531342 
	C299.684570,175.803650 297.370361,174.607300 294.513458,173.130417 
	C293.796051,174.908188 293.092316,176.652023 292.231903,178.784119 
	C290.948486,177.840897 289.732300,176.947037 287.719696,175.467880 
	C284.643372,179.205490 281.839905,183.090561 278.535217,186.488098 
	C275.411194,189.699905 271.535736,189.764359 267.481628,187.316650 
	C273.012115,178.737671 278.539307,170.163727 284.066528,161.589798 
	C284.590027,161.849258 285.113525,162.108734 285.637024,162.368195 
	C285.537384,164.023132 285.437744,165.678055 285.269012,168.480194 
	C287.721100,166.258835 289.444458,164.697601 291.160583,163.142960 
	C286.784668,158.087784 286.817291,155.519409 289.537628,149.891083 
	C291.005096,146.854965 290.950653,143.096954 294.962616,141.650650 
	C295.382904,141.499146 295.019135,139.172760 295.019135,137.819427 
	C296.793671,137.305344 299.030212,136.657425 301.632751,136.004761 
z"/>
<path fill="#FBFBFB" opacity="1.000000" stroke="none" 
	d="
M301.639343,223.042053 
	C301.999084,236.020889 301.999420,249.041794 301.999268,262.531342 
	C301.377411,262.542694 300.397339,262.207184 300.193878,261.607941 
	C299.026276,258.169312 298.042969,254.668076 296.853668,250.710709 
	C295.450714,251.540009 294.885895,251.817200 294.383911,252.181091 
	C292.789124,253.337128 291.217773,254.525467 289.637390,255.701324 
	C288.098358,253.424957 286.301819,251.275146 285.100952,248.832520 
	C284.123413,246.844193 283.647705,244.536377 283.320435,242.315582 
	C282.514038,236.842941 280.391968,237.213867 278.163757,240.162186 
	C274.916565,236.219284 271.660126,232.425980 268.597900,228.481888 
	C266.965759,226.379700 268.525818,224.154495 272.567688,222.300415 
	C276.075287,226.045105 279.439484,229.811432 283.002747,233.378891 
	C285.347015,235.725952 287.239197,235.798325 289.217926,232.375504 
	C290.342133,230.430832 293.124695,229.470642 295.097717,227.983841 
	C297.197052,226.401810 299.222290,224.721481 301.639343,223.042053 
z"/>
<path fill="#98CCBD" opacity="1.000000" stroke="none" 
	d="
M120.953781,23.371227 
	C125.292084,23.579205 127.831963,21.986397 127.002930,16.538433 
	C136.327469,19.658234 143.410629,26.075186 149.280014,33.875278 
	C156.259445,43.150585 163.986252,52.118084 166.068954,64.066101 
	C167.727936,73.583374 166.250107,82.219879 157.621475,88.276062 
	C157.050369,88.676910 156.772263,89.495232 155.462158,89.820038 
	C156.146500,87.817520 156.568268,85.673103 157.560532,83.836998 
	C161.905228,75.797478 161.826965,67.790184 158.361694,59.433075 
	C151.152466,42.046616 137.419922,31.577791 120.953781,23.371227 
z"/>
<path fill="#85BBD4" opacity="1.000000" stroke="none" 
	d="
M83.000221,91.085831 
	C92.985924,88.593964 103.028351,86.306694 112.942902,83.558144 
	C125.166451,80.169472 134.989441,72.907707 143.437088,63.626213 
	C143.965759,63.045345 144.762466,62.708424 145.981415,62.304230 
	C146.671448,62.851830 146.814529,63.353214 146.957611,63.854599 
	C142.944733,72.798363 136.074112,79.060860 127.836342,83.948021 
	C117.022278,90.363602 104.947205,92.452393 92.700813,93.887665 
	C90.072144,94.195747 87.457649,94.624771 84.387596,94.661560 
	C83.625786,93.245308 83.313004,92.165565 83.000221,91.085831 
z"/>
<path fill="#F3B59D" opacity="1.000000" stroke="none" 
	d="
M197.613190,233.989685 
	C198.300446,236.033035 198.656036,238.160095 199.022888,240.708710 
	C197.096298,242.797348 195.348587,244.780045 193.189865,246.080490 
	C178.745331,254.782074 164.213226,263.338257 149.348083,271.637543 
	C148.952805,270.828339 148.918961,270.323242 148.885132,269.818146 
	C158.818466,262.628662 168.792740,255.494827 178.670319,248.229538 
	C184.948349,243.611832 191.082748,238.798843 197.613190,233.989685 
z"/>
<path fill="#F4B6A4" opacity="1.000000" stroke="none" 
	d="
M147.985641,154.996765 
	C150.745026,163.737183 154.845871,171.069992 164.240997,171.258881 
	C159.645126,175.161530 154.532761,179.502762 149.511627,183.766525 
	C152.832886,188.809509 155.680084,188.146637 158.842834,185.550934 
	C160.656357,184.062592 162.710922,182.867920 164.656952,181.541031 
	C165.063690,182.099930 165.470428,182.658829 165.877167,183.217728 
	C162.619034,185.609558 159.671692,188.830063 156.028900,190.196320 
	C150.750488,192.176025 147.012650,187.780884 143.691940,184.623901 
	C141.180679,182.236465 139.664932,178.677948 138.105576,175.447784 
	C136.528931,172.181808 134.255203,170.517273 130.662048,170.921158 
	C126.994225,171.333435 124.995140,173.379547 124.920517,177.787415 
	C124.638657,178.664642 124.394798,178.858749 124.087234,178.972809 
	C121.962746,173.440628 122.941055,170.415375 127.554779,168.250031 
	C131.447174,166.423233 136.640121,168.238846 139.073593,172.358688 
	C140.577530,174.904831 141.775894,177.650208 143.450439,180.071732 
	C145.226822,182.640549 147.370056,182.889465 149.470184,180.159286 
	C151.475693,177.552109 153.595795,175.033066 155.645050,172.500580 
	C150.428146,168.704544 145.292099,163.708420 145.834412,155.236496 
	C146.950684,154.973709 147.468155,154.985229 147.985641,154.996765 
z"/>
<path fill="#99D0BE" opacity="1.000000" stroke="none" 
	d="
M234.508224,98.877144 
	C224.643707,99.710579 221.787567,106.439384 220.208054,114.999474 
	C218.486694,105.698250 214.561752,99.033356 203.987228,98.034866 
	C213.846039,96.488007 218.363327,90.606598 219.127716,80.305992 
	C220.237488,82.154839 220.729935,82.647263 220.844482,83.215820 
	C222.294861,90.415100 225.310028,96.037956 233.700714,96.643768 
	C234.133011,96.674980 234.469604,98.031776 234.508224,98.877144 
z"/>
<path fill="#94D2BD" opacity="1.000000" stroke="none" 
	d="
M114.546318,133.290131 
	C112.378036,137.596481 108.711617,138.315857 104.500946,137.259781 
	C97.893219,135.602509 93.347946,130.959137 88.846329,126.226791 
	C84.632973,121.797470 83.189568,122.032173 80.012199,127.267441 
	C75.963585,133.938248 76.455650,140.996857 81.630058,146.183640 
	C81.581741,147.085526 81.207657,147.605606 80.833572,148.125671 
	C75.588364,147.594193 70.343155,147.062714 65.097954,146.531250 
	C64.997795,146.254654 64.897636,145.978058 64.797478,145.701477 
	C68.197495,144.994003 71.597519,144.286530 73.931374,143.800903 
	C74.955513,137.812469 75.847298,131.977875 77.019386,126.200157 
	C77.296799,124.832657 78.378868,123.541687 79.324753,122.411285 
	C83.802002,117.060608 85.297943,117.066132 90.269440,121.835526 
	C93.138634,124.588074 96.098763,127.272461 99.224663,129.723969 
	C103.041725,132.717529 107.239258,134.496826 112.655884,132.163803 
	C113.651512,132.638382 114.098915,132.964264 114.546318,133.290131 
z"/>
<path fill="#95CEC2" opacity="1.000000" stroke="none" 
	d="
M147.297607,64.071693 
	C146.814529,63.353214 146.671448,62.851830 146.306625,62.201553 
	C146.661179,61.129967 147.237473,60.207272 148.588150,58.044708 
	C150.117676,64.481026 151.836685,69.635071 152.476013,74.919739 
	C153.316422,81.866722 150.961273,88.446777 145.848465,92.984825 
	C140.465424,97.762726 139.267258,103.107170 139.707077,109.796669 
	C140.242096,117.933678 138.904205,118.999039 130.032227,118.973419 
	C128.441986,118.990089 127.669792,118.984238 126.897598,118.978386 
	C128.138824,117.982895 129.352295,116.189400 130.626617,116.145058 
	C134.120316,116.023491 135.590668,114.547409 135.154327,111.240562 
	C134.011353,102.578407 136.992966,95.895889 142.845123,89.255173 
	C148.880814,82.406189 151.524414,73.658752 147.297607,64.071693 
z"/>
<path fill="#96CFC1" opacity="1.000000" stroke="none" 
	d="
M90.056915,238.487976 
	C90.864082,236.957184 91.840782,235.704010 92.959503,234.130768 
	C94.412689,234.764297 95.897682,235.549973 97.007179,236.698395 
	C104.982292,244.953354 112.888397,253.275070 120.792717,261.598114 
	C121.548622,262.394073 122.142525,263.343872 122.320869,264.772034 
	C110.430885,257.559174 100.009262,248.564667 90.056915,238.487976 
z"/>
<path fill="#F1AF98" opacity="1.000000" stroke="none" 
	d="
M148.261139,154.712952 
	C147.468155,154.985229 146.950684,154.973709 146.041382,154.930954 
	C145.812744,152.168045 146.847153,149.123795 145.997528,146.755447 
	C140.540558,131.544250 150.145615,121.514725 161.013489,117.997345 
	C163.972244,117.039757 167.123901,116.678230 170.595551,116.432823 
	C171.005066,117.707321 171.006073,118.592140 171.007080,119.476959 
	C164.049225,119.636375 158.095062,122.202965 153.231827,127.141006 
	C147.648300,132.810394 145.872818,139.399475 148.269104,147.184998 
	C148.955734,149.415817 148.479630,152.004532 148.261139,154.712952 
z"/>
<path fill="#83BBD1" opacity="1.000000" stroke="none" 
	d="
M82.614937,91.090988 
	C83.313004,92.165565 83.625786,93.245308 83.970070,94.664490 
	C79.997383,96.556931 75.916740,97.939926 72.005272,99.699081 
	C64.380318,103.128365 58.496624,108.602600 54.062046,115.674194 
	C53.273506,116.931641 52.313953,118.081841 51.128136,119.051872 
	C54.280502,106.020355 67.738327,93.943840 82.614937,91.090988 
z"/>
<path fill="#87C0CC" opacity="1.000000" stroke="none" 
	d="
M115.203987,189.966614 
	C110.842827,182.542023 106.481667,175.117416 102.426010,167.342789 
	C104.116333,166.677643 105.501144,166.362518 106.885956,166.047394 
	C110.920715,172.734238 114.955482,179.421066 118.887070,186.731995 
	C117.590591,188.226273 116.397285,189.096436 115.203987,189.966614 
z"/>
<path fill="#EFB49E" opacity="1.000000" stroke="none" 
	d="
M186.910645,165.075653 
	C187.205917,163.182144 186.944611,160.933105 187.889206,159.454376 
	C192.996246,151.459412 194.610336,143.010315 192.515442,133.407196 
	C193.963989,132.984543 195.043472,132.974060 196.122940,132.963593 
	C200.509003,142.651352 197.509491,151.005661 191.519531,158.866440 
	C190.227386,160.562134 189.185684,162.448669 187.715363,164.620087 
	C187.402100,164.992859 186.910645,165.075653 186.910645,165.075653 
z"/>
<path fill="#F2A995" opacity="1.000000" stroke="none" 
	d="
M131.892044,186.349182 
	C135.915573,190.787628 139.583679,195.841217 143.845581,200.331192 
	C148.186432,204.904312 153.670334,207.079315 160.556900,205.703110 
	C160.969421,206.673828 160.976120,207.305847 160.982819,207.937851 
	C152.868576,210.700317 145.428207,208.559128 140.105621,202.119293 
	C138.421722,200.081955 136.389191,198.332764 134.352615,196.287415 
	C134.200775,195.321182 133.947067,193.706741 133.449402,191.849396 
	C132.736023,189.976654 132.266617,188.346817 131.892044,186.349182 
z"/>
<path fill="#EFAB94" opacity="1.000000" stroke="none" 
	d="
M196.079742,132.599777 
	C195.043472,132.974060 193.963989,132.984543 192.482697,132.990997 
	C187.416290,125.373901 181.066864,120.337334 171.412109,119.606499 
	C171.006073,118.592140 171.005066,117.707321 171.005615,116.487015 
	C182.333572,115.739449 191.665512,121.736359 196.079742,132.599777 
z"/>
<path fill="#93CAC9" opacity="1.000000" stroke="none" 
	d="
M106.795929,165.715149 
	C105.501144,166.362518 104.116333,166.677643 102.369873,166.996185 
	C97.752579,162.254059 93.496933,157.508484 89.190155,152.185333 
	C89.784531,150.720551 90.430061,149.833328 91.075577,148.946106 
	C98.452225,152.364807 102.861244,158.605530 106.795929,165.715149 
z"/>
<path fill="#94D4C3" opacity="1.000000" stroke="none" 
	d="
M186.735138,165.356125 
	C186.910645,165.075653 187.402100,164.992859 187.649323,164.967957 
	C188.081223,165.546021 188.265915,166.148972 188.727997,166.879181 
	C189.005402,167.006424 188.986496,166.996780 188.986496,166.996780 
	C189.720230,171.033585 190.269241,175.115082 191.232147,179.096466 
	C192.587845,184.702072 191.628952,189.872513 188.401779,194.882751 
	C187.488007,194.540436 187.190460,194.180679 186.892914,193.820908 
	C188.589569,185.294891 188.478378,176.880615 185.614136,168.562592 
	C185.347290,167.787659 186.217422,166.621246 186.735138,165.356125 
z"/>
<path fill="#90C4D1" opacity="1.000000" stroke="none" 
	d="
M115.300186,190.288498 
	C116.397285,189.096436 117.590591,188.226273 118.970596,187.071564 
	C122.344994,191.293335 125.532677,195.799652 128.868805,200.908173 
	C129.023331,201.712265 129.029404,201.914139 129.035477,202.116013 
	C129.035477,202.116013 129.075974,202.529449 128.768677,202.773895 
	C127.624237,203.709778 126.787094,204.401230 125.949936,205.092667 
	C122.432091,200.265244 118.914238,195.437820 115.300186,190.288498 
z"/>
<path fill="#9DDACA" opacity="1.000000" stroke="none" 
	d="
M145.067245,219.850281 
	C149.867752,218.488174 154.702530,217.232697 159.450348,215.706635 
	C161.133438,215.165649 162.604736,213.965714 164.872360,213.051086 
	C166.447983,213.395721 167.323990,213.755890 168.199982,214.116058 
	C162.196671,217.526459 156.288666,221.128265 150.117294,224.201187 
	C148.724075,224.894913 146.413910,223.747116 144.406357,222.904037 
	C144.547012,221.524124 144.807129,220.687195 145.067245,219.850281 
z"/>
<path fill="#91E2C7" opacity="1.000000" stroke="none" 
	d="
M168.483673,213.932800 
	C167.323990,213.755890 166.447983,213.395721 165.217224,212.994675 
	C169.216034,209.702332 173.742355,206.653244 177.866608,203.133087 
	C180.969238,200.484924 183.556030,197.232376 186.632690,194.034882 
	C187.190460,194.180679 187.488007,194.540436 188.102936,195.065247 
	C185.525162,202.498398 179.707504,206.974152 173.378296,210.954865 
	C171.857147,211.911591 170.305161,212.819275 168.483673,213.932800 
z"/>
<path fill="#9BD4C6" opacity="1.000000" stroke="none" 
	d="
M126.609726,119.169334 
	C127.669792,118.984238 128.441986,118.990089 129.599243,118.994652 
	C128.473221,124.127831 123.630493,126.105186 120.116547,129.325592 
	C118.597137,130.718079 116.796333,131.803513 114.834831,133.159271 
	C114.098915,132.964264 113.651512,132.638382 112.990112,131.950989 
	C114.613510,129.167526 114.353058,125.202599 119.436867,125.241928 
	C121.716553,125.259552 124.025940,121.439072 126.609726,119.169334 
z"/>
<path fill="#81C4CE" opacity="1.000000" stroke="none" 
	d="
M126.091873,205.394623 
	C126.787094,204.401230 127.624237,203.709778 128.803680,202.978622 
	C131.339966,205.417953 133.533951,207.896988 135.863098,211.135727 
	C135.914856,213.136765 135.831467,214.378113 135.748093,215.619446 
	C132.576660,212.311813 129.405243,209.004196 126.091873,205.394623 
z"/>
<path fill="#8ACECB" opacity="1.000000" stroke="none" 
	d="
M135.836624,215.908813 
	C135.831467,214.378113 135.914856,213.136765 136.002991,211.437714 
	C138.882004,213.773651 141.756287,216.567322 144.848907,219.605637 
	C144.807129,220.687195 144.547012,221.524124 144.150116,222.661514 
	C141.317291,220.707397 138.621231,218.452789 135.836624,215.908813 
z"/>
<path fill="#F7C2B3" opacity="1.000000" stroke="none" 
	d="
M148.545990,269.911926 
	C148.918961,270.323242 148.952805,270.828339 148.996109,271.713135 
	C144.574173,274.382538 140.142792,276.672241 135.345764,278.990723 
	C139.389053,276.014862 143.797958,273.010284 148.545990,269.911926 
z"/>
<path fill="#9BD4C6" opacity="1.000000" stroke="none" 
	d="
M90.835846,148.684998 
	C90.430061,149.833328 89.784531,150.720551 88.998428,151.919006 
	C86.345352,151.023743 83.832863,149.817230 81.076973,148.368195 
	C81.207657,147.605606 81.581741,147.085526 81.987045,146.231384 
	C84.877548,146.739502 87.736832,147.581696 90.835846,148.684998 
z"/>
<path fill="#8EC8DD" opacity="1.000000" stroke="none" 
	d="
M200.123260,180.533340 
	C199.912338,180.945267 199.680557,180.964340 199.099640,181.009247 
	C196.755508,177.126740 194.760529,173.218399 192.765564,169.310059 
	C196.990250,171.675751 199.737366,175.085205 200.123260,180.533340 
z"/>
<path fill="#FBFBFB" opacity="1.000000" stroke="none" 
	d="
M264.340088,234.283203 
	C260.158173,233.660660 262.199554,231.125778 262.686554,229.290497 
	C262.774139,228.960571 265.286377,228.643219 265.867584,229.187195 
	C268.080414,231.258286 266.890594,232.904846 264.340088,234.283203 
z"/>
<path fill="#F8B7A8" opacity="1.000000" stroke="none" 
	d="
M124.118317,179.314667 
	C124.394798,178.858749 124.638657,178.664642 124.921951,178.175903 
	C127.379662,180.402222 129.734238,182.843124 132.036026,185.634979 
	C129.371964,183.876114 126.760674,181.766312 124.118317,179.314667 
z"/>
<path fill="#FBFBFB" opacity="1.000000" stroke="none" 
	d="
M264.805542,205.208435 
	C265.048401,205.766190 264.995209,206.262451 264.942017,206.758713 
	C264.497467,206.645645 264.052948,206.532578 263.608398,206.419495 
	C263.908752,205.995316 264.209137,205.571136 264.805542,205.208435 
z"/>
<path fill="#FBFBFB" opacity="1.000000" stroke="none" 
	d="
M282.459869,260.614380 
	C282.345154,261.057983 282.065674,261.329803 281.768463,261.580688 
	C281.760925,261.587036 281.558716,261.362854 281.447327,261.246185 
	C281.729126,260.977417 282.010925,260.708649 282.459869,260.614380 
z"/>
<path fill="#8EC8DD" opacity="1.000000" stroke="none" 
	d="
M189.012756,167.015778 
	C189.109177,166.391525 189.198227,165.757935 189.287262,165.124344 
	C189.418533,165.152023 189.549789,165.179718 189.681046,165.207397 
	C189.563431,165.679306 189.445801,166.151230 189.157349,166.809967 
	C188.986496,166.996780 189.005402,167.006424 189.012756,167.015778 
z"/>
<path fill="#ECB19B" opacity="1.000000" stroke="none" 
	d="
M177.987534,56.987686 
	C177.321991,57.350819 176.601974,57.646751 175.881958,57.942680 
	C175.804749,57.729347 175.727524,57.516010 175.650299,57.302677 
	C176.180237,57.133465 176.710159,56.964252 177.533508,56.789433 
	C177.826935,56.783821 177.933060,56.920479 177.987534,56.987686 
z"/>
<path fill="#F7C2B3" opacity="1.000000" stroke="none" 
	d="
M134.694534,278.971375 
	C134.830215,279.254364 134.636047,279.524811 134.220093,279.920135 
	C133.567886,280.012482 133.137436,279.979980 132.385559,279.916229 
	C132.830963,279.576263 133.597809,279.267517 134.694534,278.971375 
z"/>
<path fill="#81C4CE" opacity="1.000000" stroke="none" 
	d="
M129.245514,202.008484 
	C129.029404,201.914139 129.023331,201.712265 129.022858,201.206848 
	C129.028488,200.903336 129.484070,201.015213 129.711670,201.071136 
	C129.904587,201.464111 129.743347,201.722061 129.245514,202.008484 
z"/>
<path fill="#F8B7A8" opacity="1.000000" stroke="none" 
	d="
M161.359253,207.953339 
	C160.976120,207.305847 160.969421,206.673828 160.940369,205.733139 
	C166.783203,202.558105 172.648422,199.691742 178.985672,196.594696 
	C174.970978,203.300888 168.319321,205.586914 161.359253,207.953339 
z"/>
</svg>